<?xml version="1.0" standalone="no"?>
<!DOCTYPE svg PUBLIC "-//W3C//DTD SVG 20010904//EN"
 "http://www.w3.org/TR/2001/REC-SVG-20010904/DTD/svg10.dtd">
<svg version="1.0" xmlns="http://www.w3.org/2000/svg"
 width="200.000000pt" height="200.000000pt" viewBox="0 0 200.000000 200.000000"
 preserveAspectRatio="xMidYMid meet">
<metadata>
Created by potrace 1.14, written by Peter Selinger 2001-2017
</metadata>
<g transform="translate(0.000000,200.000000) scale(0.100000,-0.100000)"
fill="#000000" stroke="none">
<path d="M0 1000 l0 -1000 1000 0 1000 0 0 1000 0 1000 -1000 0 -1000 0 0
-1000z m993 551 c90 -23 127 -41 186 -89 97 -79 142 -195 142 -369 0 -123 -11
-198 -42 -295 -68 -210 -229 -361 -446 -420 -69 -18 -114 -21 -402 -25 -313
-5 -324 -5 -319 13 2 11 60 286 128 612 l124 592 277 0 c240 0 286 -2 352 -19z
m897 10 c0 -5 -15 -80 -34 -167 -21 -95 -69 -258 -123 -415 l-88 -259 -62 0
c-53 0 -63 3 -63 18 0 9 9 127 20 261 18 214 41 361 85 549 5 21 9 22 135 22
74 0 130 -4 130 -9z m-196 -968 c-3 -16 -16 -75 -28 -133 l-22 -105 -138 -3
-138 -3 5 23 c3 13 16 74 28 136 l22 112 138 0 139 0 -6 -27z"/>
<path d="M590 1336 c0 -5 -144 -686 -155 -733 -5 -23 -4 -23 92 -23 204 1 305
33 392 125 94 99 136 221 129 372 -6 116 -39 182 -113 228 -47 29 -52 30 -197
33 -81 2 -148 1 -148 -2z"/>
</g>
</svg>
